<?xml version="1.0" encoding="UTF-8"?>
<svg width="752pt" height="752pt" version="1.1" viewBox="0 0 752 752" xmlns="http://www.w3.org/2000/svg">
 <path d="m509.25 449.33c-27.02 0-50.898 13.41-65.504 33.898l-127.82-73.777c0.19922-0.39844 0.30078-0.79688 0.44922-1.1953 0.64844-1.3945 1.1484-2.8906 1.6953-4.3359 0.39844-1.0977 0.84766-2.1445 1.1953-3.2422 0.54687-1.7461 0.99609-3.4883 1.4453-5.2852 0.19922-0.89844 0.5-1.7461 0.69922-2.6914 0.44922-2.0938 0.74609-4.1875 1.0469-6.332 0.10156-0.64844 0.25-1.2969 0.30078-1.9453 0.30078-2.793 0.44922-5.6328 0.44922-8.4727 0-2.8906-0.14844-5.6836-0.44922-8.4727-0.050781-0.5-0.14844-0.99609-0.25-1.4961-0.30078-2.293-0.64844-4.5859-1.0977-6.8281-0.14844-0.69922-0.34766-1.3945-0.54688-2.043-0.5-1.9922-0.99609-3.9883-1.6445-5.9336-0.30078-0.99609-0.69922-1.9453-1.0469-2.8906-0.59766-1.5469-1.1484-3.0898-1.793-4.6367-0.14844-0.39844-0.30078-0.79688-0.44922-1.1484l127.82-73.73c14.605 20.438 38.484 33.848 65.504 33.848 44.367 0 80.457-36.094 80.457-80.457 0-44.418-36.094-80.508-80.457-80.508-44.367 0-80.508 36.141-80.508 80.508 0 11.965 2.6914 23.23 7.3789 33.449l-127.93 73.777c-14.605-20.438-38.484-33.848-65.504-33.848-44.367 0-80.457 36.094-80.457 80.457 0 44.418 36.094 80.508 80.457 80.508 27.02 0 50.898-13.41 65.504-33.898l127.87 73.828c-4.6875 10.219-7.3789 21.484-7.3789 33.449 0 44.418 36.094 80.508 80.508 80.508 44.367 0 80.457-36.141 80.457-80.508 0.003906-44.363-36.035-80.555-80.402-80.555zm0-292.52c35.992 0 65.305 29.312 65.305 65.305 0 35.992-29.262 65.254-65.305 65.254-35.992 0-65.305-29.262-65.305-65.254 0-35.992 29.312-65.305 65.305-65.305zm-266.5 284.45c-35.992 0-65.254-29.312-65.254-65.305s29.262-65.254 65.254-65.254c24.527 0 45.863 13.559 57.027 33.598 1.1484 2.0938 2.1953 4.1875 3.1406 6.332 0.30078 0.69922 0.5 1.4453 0.79688 2.1445 0.64844 1.6445 1.1953 3.3398 1.6953 5.0352 0.30078 0.94531 0.5 1.9453 0.74609 2.9414 0.39844 1.5938 0.69922 3.1914 0.94531 4.8359 0.14844 0.89844 0.30078 1.793 0.39844 2.6914 0.30078 2.543 0.5 5.0859 0.5 7.6758 0 1.9922-0.10156 3.9375-0.30078 5.8828-0.050781 0.5-0.10156 0.99609-0.14844 1.4453-0.19922 1.8945-0.5 3.7891-0.84766 5.582-0.050781 0.25-0.14844 0.54688-0.19922 0.79688-0.34766 1.6445-0.79688 3.2891-1.2461 4.8867-0.14844 0.39844-0.25 0.84766-0.39844 1.2461-0.59766 1.8438-1.2461 3.6875-1.9922 5.4336 0 0.050782-0.050782 0.10156-0.050782 0.10156-0.74609 1.793-1.6445 3.5391-2.543 5.2852-0.10156 0.19922-0.19922 0.39844-0.34766 0.59766-11.062 20.336-32.551 34.047-57.176 34.047zm266.5 153.94c-35.992 0-65.305-29.312-65.305-65.305s29.312-65.305 65.305-65.305c35.992 0 65.305 29.312 65.305 65.305-0.003906 35.992-29.312 65.305-65.305 65.305z"/>
</svg>
